<?xml version="1.0" standalone="no"?>
<!DOCTYPE svg PUBLIC "-//W3C//DTD SVG 20010904//EN"
 "http://www.w3.org/TR/2001/REC-SVG-20010904/DTD/svg10.dtd">
<svg version="1.0" xmlns="http://www.w3.org/2000/svg"
 width="750.000000pt" height="90.000000pt" viewBox="0 0 750.000000 90.000000"
 preserveAspectRatio="xMidYMid meet">

<g transform="translate(0.000000,90.000000) scale(0.100000,-0.100000)"
fill="#000000" stroke="none">
<path d="M230 741 c-69 -24 -131 -89 -150 -155 -16 -57 -9 -170 13 -211 21
-42 64 -83 112 -108 51 -27 180 -29 238 -4 36 16 37 17 37 69 l0 53 -25 -53
c-29 -63 -73 -88 -137 -77 -103 18 -155 148 -128 321 14 90 45 136 105 159 65
25 101 13 143 -49 l32 -48 0 44 c0 40 -3 45 -32 56 -60 23 -148 24 -208 3z"/>
<path d="M690 751 c-115 -37 -170 -118 -170 -251 0 -113 40 -189 122 -231 81
-42 170 -34 246 21 58 42 84 98 90 193 7 120 -33 204 -121 248 -44 23 -128 33
-167 20z m98 -12 c45 -15 62 -50 75 -150 13 -104 -1 -252 -28 -293 -36 -55
-134 -55 -170 0 -27 41 -41 189 -28 293 13 101 25 128 68 147 37 16 44 17 83
3z"/>
<path d="M999 727 c19 -10 37 -50 92 -202 38 -104 76 -209 85 -233 14 -37 20
-43 42 -40 24 3 30 17 102 232 49 148 82 233 95 242 17 13 16 14 -21 14 -28 0
-35 -3 -24 -10 13 -8 6 -35 -43 -185 -32 -96 -62 -175 -67 -175 -5 0 -34 77
-66 172 -54 163 -56 172 -38 185 15 11 4 13 -82 13 -85 0 -96 -2 -75 -13z"/>
<path d="M1488 720 c21 -20 22 -28 22 -230 0 -205 0 -209 -22 -224 -21 -15
-16 -16 72 -16 70 1 90 3 78 11 -16 9 -18 31 -18 228 0 215 0 219 23 234 21
15 16 16 -77 16 l-100 1 22 -20z"/>
<path d="M1713 729 c15 -9 17 -31 17 -231 0 -198 -2 -222 -17 -235 -16 -12 0
-13 117 -10 116 3 142 7 183 26 87 42 127 114 127 227 -1 108 -60 188 -162
219 -61 18 -296 22 -265 4z m252 -23 c45 -30 60 -81 60 -211 0 -173 -30 -225
-132 -228 l-48 -2 -3 220 c-1 121 0 226 3 234 7 17 87 8 120 -13z"/>
<path d="M2363 726 c15 -12 17 -35 17 -234 0 -200 -2 -222 -17 -231 -13 -8 7
-10 77 -11 88 0 93 1 72 16 -20 14 -22 23 -22 120 l0 105 28 -3 c24 -3 34 -17
84 -120 l57 -118 63 0 c61 0 62 1 41 18 -19 15 -123 209 -123 229 0 5 13 14
29 21 70 31 87 125 33 173 -44 39 -90 49 -232 49 -106 -1 -122 -3 -107 -14z
m244 -31 c17 -19 23 -39 23 -75 0 -86 -30 -120 -105 -120 l-35 0 0 116 0 117
47 -6 c35 -4 53 -12 70 -32z"/>
<path d="M5640 678 l1 -63 24 47 c29 54 49 68 99 68 l36 0 0 -224 c0 -234 -1
-238 -45 -249 -11 -2 34 -5 100 -5 112 -1 118 0 87 13 l-32 14 2 223 3 223 29
3 c50 6 75 -6 96 -48 11 -22 23 -40 25 -40 3 0 5 23 5 50 l0 50 -215 0 -215 0
0 -62z"/>
<path d="M2920 605 c-76 -35 -113 -92 -113 -176 0 -101 56 -171 148 -185 25
-3 59 -1 80 6 39 13 95 56 95 72 0 6 -9 3 -20 -7 -12 -11 -41 -20 -73 -23 -63
-5 -101 19 -117 76 -20 74 -23 72 105 72 l115 0 0 30 c0 46 -24 94 -59 119
-40 29 -115 36 -161 16z m101 -14 c20 -16 23 -28 24 -77 l0 -59 -59 -3 c-32
-2 -63 1 -69 7 -16 16 2 101 28 127 29 29 45 30 76 5z"/>
<path d="M3264 606 c-78 -35 -99 -124 -43 -177 17 -16 35 -29 40 -29 30 0 119
-44 124 -61 12 -37 -3 -67 -39 -79 -58 -19 -95 1 -143 76 -10 16 -12 13 -12
-24 -1 -37 2 -44 26 -53 77 -29 169 -19 220 25 24 21 28 32 28 74 0 62 -19 85
-94 112 -31 11 -66 26 -78 32 -45 22 -41 78 6 98 41 16 80 3 103 -36 22 -37
38 -36 38 1 0 14 -9 29 -21 35 -34 19 -121 22 -155 6z"/>
<path d="M3570 597 c-68 -25 -69 -26 -47 -38 15 -9 17 -31 17 -229 0 -215 0
-219 -22 -234 -21 -15 -16 -16 72 -15 67 0 88 3 73 9 -21 9 -23 16 -23 89 l0
79 37 -10 c119 -33 206 45 206 182 -1 75 -14 114 -50 152 -35 37 -81 44 -142
24 -60 -19 -59 -19 -63 -2 -2 11 -14 9 -58 -7z m185 -39 c16 -27 20 -51 20
-128 0 -82 -3 -100 -23 -132 -18 -30 -30 -38 -52 -38 -60 0 -60 -1 -60 161 0
163 2 168 65 169 24 0 35 -7 50 -32z"/>
<path d="M4047 606 c-50 -18 -76 -42 -98 -91 -38 -83 -11 -195 59 -242 71 -47
179 -38 238 21 96 96 55 280 -71 315 -51 14 -81 13 -128 -3z m110 -20 l28 -24
0 -132 0 -132 -29 -25 c-21 -18 -35 -23 -54 -18 -52 13 -67 68 -60 213 4 88
18 128 48 136 30 8 39 6 67 -18z"/>
<path d="M4527 596 c-58 -31 -57 -31 -57 -6 0 23 -15 25 -61 6 -19 -7 -43 -16
-54 -20 -19 -7 -19 -8 -2 -17 15 -9 17 -27 17 -149 0 -122 -2 -140 -17 -149
-13 -8 6 -10 72 -10 66 0 85 2 73 10 -16 9 -18 27 -18 149 0 132 1 140 22 154
27 19 69 21 86 4 8 -8 12 -57 12 -155 0 -125 -2 -143 -17 -152 -13 -8 6 -10
72 -11 84 0 88 1 67 16 -21 14 -22 22 -22 154 0 130 -1 141 -23 165 -33 39
-89 43 -150 11z"/>
<path d="M4854 606 c-78 -35 -99 -124 -43 -177 17 -16 35 -29 40 -29 30 0 119
-44 124 -61 12 -37 -3 -67 -39 -79 -58 -19 -95 1 -143 76 -10 16 -12 13 -12
-24 -1 -37 2 -44 26 -53 77 -29 169 -19 220 25 24 21 28 32 28 74 0 62 -19 85
-94 112 -31 11 -66 26 -78 32 -45 22 -41 78 6 98 41 16 80 3 103 -36 22 -37
38 -36 38 1 0 14 -9 29 -21 35 -34 19 -121 22 -155 6z"/>
<path d="M5221 607 c-71 -23 -121 -100 -121 -187 0 -41 29 -108 56 -132 29
-25 89 -48 127 -48 41 0 116 37 136 68 l15 24 -35 -21 c-83 -51 -176 -10 -186
82 l-6 47 111 0 c121 0 126 3 113 62 -13 55 -30 79 -74 99 -47 21 -85 22 -136
6z m99 -17 c16 -16 20 -33 20 -80 l0 -60 -65 0 -65 0 0 39 c0 74 28 118 78
120 6 1 21 -8 32 -19z"/>
<path d="M6188 610 c-77 -23 -127 -96 -128 -183 0 -108 77 -187 183 -187 41 0
112 35 131 65 l16 25 -32 -20 c-37 -22 -94 -26 -132 -9 -30 14 -56 65 -56 108
l0 31 111 0 112 0 -5 50 c-10 97 -99 150 -200 120z m92 -20 c17 -17 20 -31 18
-78 l-3 -57 -62 -3 -63 -3 0 46 c0 95 59 146 110 95z"/>
<path d="M6542 610 c-70 -16 -110 -94 -62 -120 32 -17 59 4 66 51 19 116 104
78 104 -46 0 -47 0 -47 -75 -60 -118 -20 -169 -95 -111 -162 21 -24 32 -28 74
-28 40 0 56 5 77 25 l26 25 19 -25 c15 -20 28 -25 63 -25 24 0 52 7 62 15 17
14 16 15 -6 20 -23 6 -24 10 -30 133 -7 142 -18 169 -74 193 -37 15 -81 17
-133 4z m108 -240 c0 -49 -4 -61 -22 -74 -72 -50 -134 49 -69 109 20 17 71 35
84 28 4 -2 7 -31 7 -63z"/>
<path d="M7024 606 c-18 -8 -35 -19 -38 -25 -12 -18 -36 -12 -36 9 0 25 -18
25 -85 0 -38 -13 -46 -19 -32 -25 15 -6 17 -23 17 -151 0 -126 -2 -144 -17
-153 -13 -8 6 -10 72 -10 66 0 85 2 73 10 -16 9 -18 27 -18 149 0 132 1 140
22 154 27 19 69 21 86 4 13 -13 17 -275 4 -294 -4 -6 -14 -14 -22 -17 -8 -3
25 -6 74 -6 74 -1 87 1 73 11 -13 11 -16 36 -18 152 -2 137 -2 139 22 152 30
17 71 18 87 2 8 -8 12 -57 12 -155 0 -125 -2 -143 -17 -152 -13 -8 4 -10 66
-11 81 0 83 1 68 18 -14 15 -17 42 -17 154 0 121 -2 138 -20 161 -37 47 -122
45 -184 -4 -23 -18 -27 -19 -32 -4 -8 20 -56 45 -86 45 -13 -1 -37 -7 -54 -14z"/>
</g>
</svg>
